<svg width="179" height="179" viewBox="0 0 179 179" fill="none" xmlns="http://www.w3.org/2000/svg">
<path d="M90.1378 177.196C138.591 177.196 177.87 138.13 177.87 89.9394C177.87 41.7491 138.591 2.68322 90.1378 2.68322C41.6847 2.68322 2.40576 41.7491 2.40576 89.9394C2.40576 138.13 41.6847 177.196 90.1378 177.196Z" fill="#2C2C2C"/>
<path d="M91.5807 68.0366C116.754 75.8714 115.2 77.7571 115.2 77.7571L106.459 76.2397C106.459 76.2397 98.1239 75.0624 95.0962 73.8494C92.0685 72.6364 81.7891 65.3789 81.7891 65.3789L91.5807 68.0366Z" fill="#045FD0" stroke="black" stroke-width="1.1823"/>
<path d="M97.0501 69.7584C97.0501 69.7584 97.5296 72.3559 97.1757 72.9257L96.7908 73.5455C96.7908 73.5455 100.133 72.4692 100.415 71.7013C100.698 70.9334 100.687 70.9299 100.687 70.9299L97.0501 69.7584Z" fill="white" stroke="black" stroke-width="1.1823"/>
<path d="M47.8745 144.346C45.6622 141.21 42.2836 134.278 40.3443 128.895C35.7738 116.21 34.1585 102.848 36.0086 93.0296C37.2578 86.4004 38.3543 84.1318 43.6625 77.1942C46.052 74.0712 48.0093 70.9783 48.0122 70.3209C48.0171 69.1824 44.016 65.2608 39.764 62.2366L37.9299 60.9322L40.9867 61.2505C42.8041 61.4398 46.1504 62.5494 49.2401 63.9874C52.0982 65.3176 54.643 66.4911 54.8952 66.5952C55.1474 66.6993 55.3537 66.3155 55.3537 65.7424C55.3537 65.1694 52.7401 61.4396 49.5458 57.4542C46.3514 53.4687 43.7378 50.0929 43.7378 49.9523C43.7378 49.8117 45.993 50.7095 48.7492 51.9475C52.2063 53.5001 54.5766 54.1982 56.3913 54.1982C58.9143 54.1982 59.0219 54.1276 59.0219 52.4722C59.0219 49.3583 55.7175 44.3667 47.812 35.5382C42.8826 30.0334 42.3587 30.0549 55.9651 35.2037C85.3695 46.3308 107.197 57.2946 115.267 64.9906C117.722 67.3314 119.771 70.255 122.856 75.8186C125.18 80.0104 128.258 85.1488 129.697 87.2375C134.261 93.8662 142.522 98.7884 155.744 102.758C162.912 104.91 166.01 106.167 166.01 106.921C166.01 107.172 165.165 108.562 164.132 110.01C162.094 112.868 157.857 116.089 156.135 116.089C155.153 116.089 155.19 115.769 156.562 112.385C157.387 110.348 158.063 108.429 158.063 108.12C158.063 107.811 155.833 108.6 153.108 109.872C150.384 111.145 148.009 112.051 147.832 111.886C147.655 111.722 147.807 110.5 148.17 109.172C148.533 107.843 148.696 106.632 148.532 106.48C148.369 106.328 145.903 107.278 143.052 108.591C140.202 109.904 137.762 110.978 137.631 110.978C137.5 110.978 137.53 109.509 137.698 107.713L138.003 104.449L106.919 95.7685C89.8223 90.9945 75.5286 87.098 75.1549 87.1096C74.7813 87.1211 74.5852 87.7056 74.7192 88.4082C74.8533 89.1109 74.5864 91.4744 74.1262 93.6604L73.2894 97.635L72.5044 94.1287C71.3728 89.0743 69.9477 87.1307 67.373 87.1307C65.6788 87.1307 64.7765 87.6602 62.2931 90.1116C56.659 95.6733 50.4032 106.863 48.933 114.009C47.8547 119.25 47.7418 130.383 48.6793 139.034C49.0434 142.393 49.2182 145.256 49.0678 145.396C48.9174 145.535 48.3804 145.063 47.8745 144.346ZM115.124 77.3361C114.636 75.9267 107.418 72.8242 95.0923 68.7265C87.9893 66.3651 80.314 64.6635 81.6932 65.756C82.8837 66.699 91.5826 72.4096 93.3089 73.3813C94.6109 74.1143 99.0744 75.2876 104.313 76.2741C114.57 78.2054 115.454 78.2923 115.124 77.3361Z" fill="white"/>
</svg>
