<?xml version="1.0" encoding="UTF-8" standalone="no"?>
<!-- Created with Inkscape (http://www.inkscape.org/) -->

<svg
   width="300mm"
   height="300mm"
   viewBox="0 0 300 300"
   version="1.1"
   id="svg57399"
   inkscape:version="1.1.2 (0a00cf5339, 2022-02-04)"
   sodipodi:docname="hydra.logo.simple.svg"
   xmlns:inkscape="http://www.inkscape.org/namespaces/inkscape"
   xmlns:sodipodi="http://sodipodi.sourceforge.net/DTD/sodipodi-0.dtd"
   xmlns="http://www.w3.org/2000/svg"
   xmlns:svg="http://www.w3.org/2000/svg">
  <sodipodi:namedview
     id="namedview57401"
     pagecolor="#ffffff"
     bordercolor="#666666"
     borderopacity="1.0"
     inkscape:pageshadow="2"
     inkscape:pageopacity="0.0"
     inkscape:pagecheckerboard="0"
     inkscape:document-units="mm"
     showgrid="false"
     inkscape:zoom="1.4639531"
     inkscape:cx="357.59343"
     inkscape:cy="478.49894"
     inkscape:window-width="1600"
     inkscape:window-height="831"
     inkscape:window-x="0"
     inkscape:window-y="0"
     inkscape:window-maximized="1"
     inkscape:current-layer="layer1" />
  <defs
     id="defs57396" />
  <g
     inkscape:label="Layer 1"
     inkscape:groupmode="layer"
     id="layer1">
    <ellipse
       style="fill:#045fd0;stroke-width:0.506665;fill-opacity:1"
       id="ellipse12449-9"
       cx="151.06891"
       cy="150.73643"
       rx="147.03687"
       ry="146.23941" />
    <path
       style="fill:#045fd0;stroke:#000000;stroke-width:0.312816px;stroke-linecap:butt;stroke-linejoin:miter;stroke-opacity:1;fill-opacity:1"
       d="m 153.48734,114.02782 c 42.18927,13.13099 39.5852,16.29133 39.5852,16.29133 l -14.64878,-2.54316 c 0,0 -13.97006,-1.97313 -19.04443,-4.00604 -5.07436,-2.03291 -22.30249,-14.19631 -22.30249,-14.19631 z"
       id="path12455-1"
       sodipodi:nodetypes="cccscc" />
    <path
       style="fill:#ffffff;stroke:#000000;stroke-width:0.312816px;stroke-linecap:butt;stroke-linejoin:miter;stroke-opacity:1"
       d="m 162.6537,116.9135 c 0,0 0.8036,4.35344 0.21048,5.30839 l -0.64514,1.03875 c 0,0 5.60169,-1.80391 6.07468,-3.09083 0.47301,-1.28694 0.4547,-1.29285 0.4547,-1.29285 z"
       id="path12457-2"
       sodipodi:nodetypes="cscscc" />
    <path
       style="fill:#ffffff;stroke-width:0.987452"
       d="m 80.236728,241.92029 c -3.707759,-5.25554 -9.370225,-16.87396 -12.620475,-25.895 -7.660011,-21.26062 -10.36724,-43.65486 -7.266559,-60.10975 2.093576,-11.11033 3.931323,-14.91254 12.827845,-26.53986 4.004697,-5.23394 7.285149,-10.41763 7.289896,-11.51934 0.0083,-1.90824 -6.697489,-8.48072 -13.823808,-13.54918 l -3.073912,-2.18618 5.123182,0.53349 c 3.045952,0.31724 8.654313,2.177 13.832459,4.58698 4.790161,2.22937 9.055198,4.19616 9.477855,4.37061 0.422657,0.17447 0.768468,-0.46869 0.768468,-1.42921 0,-0.96048 -4.380279,-7.21145 -9.733961,-13.890896 -5.353722,-6.679529 -9.734002,-12.337366 -9.734002,-12.573015 0,-0.23564 3.779555,1.269102 8.398997,3.343852 5.793945,2.602226 9.766488,3.772223 12.807887,3.772223 4.22851,0 4.408875,-0.118431 4.408875,-2.892745 0,-5.218848 -5.538033,-13.584752 -18.787566,-28.381032 C 71.870383,50.33525 70.992251,50.37127 93.796294,59.000672 143.07745,77.649437 179.66,96.024494 193.1854,108.92282 c 4.11386,3.92317 7.54778,8.82302 12.71811,18.14745 3.89544,7.0253 9.05486,15.63729 11.46539,19.1378 7.65032,11.10964 21.4946,19.35901 43.65488,26.0125 12.01278,3.60676 17.20586,5.71242 17.20586,6.97652 0,0.42023 -1.41643,2.7501 -3.14766,5.17755 -3.41574,4.78942 -10.51704,10.18711 -13.40237,10.18711 -1.64588,0 -1.58419,-0.53605 0.71418,-6.20728 1.38361,-3.414 2.51569,-6.63046 2.51569,-7.14777 0,-0.51728 -3.7364,0.80427 -8.30307,2.93674 -4.56672,2.1325 -8.54617,3.6514 -8.84335,3.37547 -0.29713,-0.27599 -0.0425,-2.32332 0.56603,-4.54963 0.60847,-2.22634 0.88198,-4.25619 0.60781,-4.51081 -0.27417,-0.25464 -4.40715,1.33742 -9.18441,3.53785 -4.77725,2.20046 -8.86598,4.00082 -9.08602,4.00082 -0.22004,0 -0.16985,-2.46231 0.11157,-5.47181 l 0.51157,-5.47183 -52.0964,-14.5476 c -28.65302,-8.00116 -52.60881,-14.53165 -53.23511,-14.5122 -0.62626,0.0194 -0.95486,0.99886 -0.73022,2.1765 0.22463,1.17761 -0.22267,5.13877 -0.99399,8.80248 l -1.40246,6.66138 -1.31558,-5.87644 c -1.89647,-8.47114 -4.28499,-11.72856 -8.60017,-11.72856 -2.83932,0 -4.35163,0.88746 -8.51369,4.99601 -9.442725,9.32132 -19.927243,28.0752 -22.39128,40.05181 -1.807187,8.78407 -1.996342,27.44136 -0.425176,41.94018 0.610165,5.63049 0.90317,10.42871 0.651148,10.66284 -0.252063,0.23405 -1.152009,-0.55775 -1.999898,-1.75961 z M 192.94484,129.61356 c -0.81668,-2.36204 -12.91486,-7.56186 -33.57224,-14.42953 -11.90443,-3.95767 -24.76798,-6.80942 -22.45646,-4.97843 1.99518,1.58049 16.57429,11.15119 19.46753,12.77988 2.18212,1.22835 9.66283,3.19483 18.44334,4.84816 17.18974,3.23682 18.67196,3.38243 18.11783,1.77992 z"
       id="path12461-7" />
  </g>
</svg>
